<svg width="64px" height="64px" viewBox="0 0 2.24 2.24" fill="none" xmlns="http://www.w3.org/2000/svg"><path d="M0.793 1.726a0.048 0.048 0 0 0 0.055 0.04l0.063 -0.011a0.048 0.048 0 0 0 0.039 -0.055l-0.06 -0.359a0.048 0.048 0 0 0 -0.055 -0.04l-0.063 0.011a0.048 0.048 0 0 0 -0.039 0.055l0.06 0.359Z" fill="#2A7AE4"/><path d="M1.289 1.699a0.048 0.048 0 0 0 0.039 0.055l0.063 0.011a0.048 0.048 0 0 0 0.055 -0.04l0.06 -0.359a0.048 0.048 0 0 0 -0.039 -0.055l-0.063 -0.011a0.048 0.048 0 0 0 -0.055 0.04l-0.06 0.359Z" fill="#2A7AE4"/><path clip-rule="evenodd" d="M1.699 0.719H0.522l0.452 -0.424a0.056 0.056 0 0 0 0.003 -0.079l-0.033 -0.035a0.056 0.056 0 0 0 -0.079 -0.003L0.306 0.702a0.056 0.056 0 0 0 -0.012 0.017H0.16a0.08 0.08 0 0 0 -0.08 0.08v0.32a0.08 0.08 0 0 0 0.08 0.08h0.034L0.365 2.004A0.096 0.096 0 0 0 0.459 2.08h1.322a0.096 0.096 0 0 0 0.094 -0.076l0.171 -0.805H2.08a0.08 0.08 0 0 0 0.08 -0.08V0.799a0.08 0.08 0 0 0 -0.08 -0.08h-0.138a0.056 0.056 0 0 0 -0.014 -0.017l-0.634 -0.529a0.056 0.056 0 0 0 -0.079 0.007l-0.031 0.037a0.056 0.056 0 0 0 0.007 0.079l0.507 0.423ZM0.288 0.879a0.048 0.048 0 0 0 -0.048 0.048v0.064a0.048 0.048 0 0 0 0.048 0.048h1.664a0.048 0.048 0 0 0 0.048 -0.048v-0.064a0.048 0.048 0 0 0 -0.048 -0.048H0.288Zm0.084 0.388a0.056 0.056 0 0 1 0.055 -0.068h1.386a0.056 0.056 0 0 1 0.055 0.068l-0.13 0.608a0.056 0.056 0 0 1 -0.055 0.044H0.556a0.056 0.056 0 0 1 -0.055 -0.044L0.372 1.267Z" fill="#464646" fill-rule="evenodd"/></svg>