<svg xmlns="http://www.w3.org/2000/svg" width="30" height="30" viewBox="0 0 1.2 1.2" xml:space="preserve"><path d="M1.109 0.353 0.975 0.487l-0.263 -0.263 0.134 -0.134a0.075 0.075 0 0 1 0.106 0l0.156 0.156c0.029 0.029 0.029 0.077 0 0.106zM0.675 0.263l0.263 0.263 -0.536 0.536C0.387 1.076 0.358 1.087 0.337 1.087H0.15c-0.021 0 -0.037 -0.017 -0.037 -0.037v-0.188c0 -0.021 0.012 -0.049 0.027 -0.064L0.675 0.263zM0.317 0.986l-0.103 -0.103c-0.015 -0.015 -0.027 -0.01 -0.027 0.011V0.975c0 0.021 0.017 0.037 0.037 0.037h0.081c0.021 0 0.026 -0.012 0.011 -0.027z" style="fill:#FFFFFF"/></svg>