<svg width="64px" height="64px" viewBox="0 0 1.92 1.92" fill="none" xmlns="http://www.w3.org/2000/svg"><path d="m0.356 1.113 0.556 0.522c0.019 0.018 0.029 0.027 0.04 0.029a0.04 0.04 0 0 0 0.015 0c0.011 -0.002 0.021 -0.011 0.04 -0.029l0.556 -0.522a0.416 0.416 0 0 0 0.044 -0.559l-0.025 -0.032c-0.157 -0.203 -0.473 -0.169 -0.584 0.063a0.043 0.043 0 0 1 -0.078 0C0.81 0.353 0.494 0.319 0.337 0.522l-0.025 0.032a0.416 0.416 0 0 0 0.044 0.558Z" fill="#2A7AE4" fill-opacity="0.40" stroke="#464646" stroke-width="0.11199999999999999"/></svg>