<svg width="64px" height="64px" viewBox="0 0 1.92 1.92" fill="none" xmlns="http://www.w3.org/2000/svg"><path cx="12" cy="7" r="5" stroke="#2A7AE4" stroke-width="0.16" d="M1.36 0.56A0.4 0.4 0 0 1 0.96 0.96A0.4 0.4 0 0 1 0.56 0.56A0.4 0.4 0 0 1 1.36 0.56z"/><path d="M1.36 1.12h0.028a0.24 0.24 0 0 1 0.238 0.21l0.031 0.25A0.16 0.16 0 0 1 1.499 1.76H0.421a0.16 0.16 0 0 1 -0.159 -0.18l0.031 -0.25A0.24 0.24 0 0 1 0.532 1.12H0.56" stroke="#2A7AE4" stroke-width="0.16" stroke-linecap="round" stroke-linejoin="round"/></svg>