<svg viewBox="0 0 64 64" width="64" height="64" xmlns="http://www.w3.org/2000/svg"><g style="stroke-width:1.05103"><path style="color:#000;fill:#464646;stroke-linecap:round;stroke-linejoin:round;-inkscape-stroke:none;paint-order:stroke fill markers" d="M21.978 -1.365c-12.947 0 -23.536 10.599 -23.536 23.55 0 12.951 10.589 23.55 23.536 23.55 12.947 0 23.536 -10.599 23.536 -23.55 0 -12.951 -10.589 -23.55 -23.536 -23.55zm0 8.969c8.097 0 14.567 6.473 14.567 14.581 0 8.108 -6.47 14.581 -14.567 14.581 -8.097 0 -14.567 -6.473 -14.567 -14.581 0 -8.108 6.471 -14.582 14.567 -14.582z" transform="matrix(.95173 0 0 .95116 13.901 12.169)"/><g transform="matrix(1.31411 0 0 1.20806 274.294 263.273)"/><g transform="matrix(1.43638 0 0 1.3274 48.9 3.18)" style="stroke-width:50.6951"/><path style="color:#000;fill:#464646;stroke-linecap:round;-inkscape-stroke:none" d="M35.43 31.162a4.484 4.484 0 0 0 -3.171 1.313 4.484 4.484 0 0 0 -0.002 6.342l25.775 25.791a4.484 4.484 0 0 0 6.342 0.002 4.484 4.484 0 0 0 0.002 -6.342L38.6 32.477a4.484 4.484 0 0 0 -3.17 -1.315z" transform="matrix(.95173 0 0 .95116 13.901 12.169)"/><path style="color:#000;fill:#464646;stroke-linecap:round;stroke-linejoin:round;-inkscape-stroke:none;paint-order:stroke fill markers" d="M32.051 -23.867a1.121 1.121 0 0 0 -1.121 1.121 9.532 9.532 0 0 1 -3.734 7.568 9.518 9.518 0 0 1 -8.274 1.636 1.121 1.121 0 0 0 -1.375 0.79 1.121 1.121 0 0 0 0.79 1.375 11.766 11.766 0 0 0 10.222 -2.021 11.779 11.779 0 0 0 4.612 -9.348 1.121 1.121 0 0 0 -1.121 -1.121z" transform="matrix(.95173 0 0 -.95116 13.901 12.169)"/></g></svg>